<svg xmlns="http://www.w3.org/2000/svg" xmlns:xlink="http://www.w3.org/1999/xlink" width="190" zoomAndPan="magnify" viewBox="0 0 142.5 30.000001" height="40" preserveAspectRatio="xMidYMid meet" version="1.0"><defs><g/><clipPath id="85a53943d6"><path d="M 2.054688 0 L 31.089844 0 L 31.089844 29.03125 L 2.054688 29.03125 Z M 2.054688 0 " clip-rule="nonzero"/></clipPath></defs><g clip-path="url(#85a53943d6)"><path fill="#ac6aff" d="M 23.742188 12.191406 L 20.660156 12.191406 L 20.660156 7.988281 C 20.660156 7.226562 20.039062 6.605469 19.28125 6.605469 L 9.476562 6.605469 C 8.714844 6.605469 8.09375 7.226562 8.09375 7.988281 L 8.09375 15.847656 C 8.09375 16.609375 8.714844 17.230469 9.476562 17.230469 L 10.894531 17.230469 L 10.894531 19.519531 C 10.894531 19.796875 11.066406 20.050781 11.328125 20.152344 C 11.410156 20.183594 11.492188 20.199219 11.578125 20.199219 C 11.761719 20.199219 11.945312 20.121094 12.078125 19.980469 L 14.617188 17.230469 L 14.628906 17.230469 L 14.628906 19.601562 C 14.628906 20.320312 15.214844 20.90625 15.9375 20.90625 L 19.117188 20.90625 L 21.367188 23.339844 C 21.5 23.484375 21.679688 23.558594 21.867188 23.558594 C 21.949219 23.558594 22.035156 23.546875 22.113281 23.511719 C 22.375 23.410156 22.546875 23.160156 22.546875 22.878906 L 22.546875 20.90625 L 23.742188 20.90625 C 24.464844 20.90625 25.050781 20.320312 25.050781 19.601562 L 25.050781 13.496094 C 25.050781 12.777344 24.464844 12.191406 23.742188 12.191406 Z M 14.628906 13.496094 L 14.628906 15.867188 L 14.320312 15.867188 C 14.128906 15.867188 13.949219 15.949219 13.820312 16.085938 L 12.257812 17.777344 L 12.257812 16.550781 C 12.257812 16.171875 11.953125 15.867188 11.578125 15.867188 L 9.476562 15.867188 C 9.464844 15.867188 9.457031 15.859375 9.457031 15.847656 L 9.457031 7.988281 C 9.457031 7.976562 9.464844 7.96875 9.476562 7.96875 L 19.28125 7.96875 C 19.289062 7.96875 19.300781 7.976562 19.300781 7.988281 L 19.300781 12.191406 L 15.9375 12.191406 C 15.214844 12.191406 14.628906 12.777344 14.628906 13.496094 Z M 23.6875 19.546875 L 21.867188 19.546875 C 21.492188 19.546875 21.1875 19.851562 21.1875 20.226562 L 21.1875 21.140625 L 19.914062 19.765625 C 19.789062 19.625 19.605469 19.546875 19.417969 19.546875 L 15.992188 19.546875 L 15.992188 13.550781 L 23.6875 13.550781 Z M 16.574219 0 C 8.566406 0 2.054688 6.511719 2.054688 14.515625 C 2.054688 22.519531 8.566406 29.03125 16.574219 29.03125 C 24.578125 29.03125 31.089844 22.519531 31.089844 14.515625 C 31.089844 6.511719 24.578125 0 16.574219 0 Z M 16.574219 27.671875 C 9.320312 27.671875 3.417969 21.769531 3.417969 14.515625 C 3.417969 7.261719 9.320312 1.359375 16.574219 1.359375 C 23.828125 1.359375 29.726562 7.261719 29.726562 14.515625 C 29.726562 21.769531 23.828125 27.671875 16.574219 27.671875 Z M 16.574219 27.671875 " fill-opacity="1" fill-rule="nonzero"/></g><g fill="#ffffff" fill-opacity="1"><g transform="translate(41.20747, 20.685486)"><g><path d="M 5.4375 0.171875 C 4.582031 0.171875 3.820312 0.0664062 3.15625 -0.140625 C 2.5 -0.347656 1.945312 -0.625 1.5 -0.96875 C 1.0625 -1.3125 0.726562 -1.6875 0.5 -2.09375 L 1.828125 -3.71875 L 2.046875 -3.71875 C 2.410156 -3.164062 2.875 -2.726562 3.4375 -2.40625 C 4.007812 -2.082031 4.675781 -1.921875 5.4375 -1.921875 C 6.082031 -1.921875 6.570312 -2.054688 6.90625 -2.328125 C 7.238281 -2.609375 7.40625 -2.988281 7.40625 -3.46875 C 7.40625 -3.757812 7.347656 -4 7.234375 -4.1875 C 7.128906 -4.382812 6.953125 -4.550781 6.703125 -4.6875 C 6.460938 -4.832031 6.132812 -4.957031 5.71875 -5.0625 L 4.140625 -5.421875 C 3.035156 -5.671875 2.210938 -6.085938 1.671875 -6.671875 C 1.128906 -7.253906 0.859375 -8.015625 0.859375 -8.953125 C 0.859375 -9.648438 1.03125 -10.257812 1.375 -10.78125 C 1.726562 -11.3125 2.234375 -11.722656 2.890625 -12.015625 C 3.554688 -12.304688 4.351562 -12.453125 5.28125 -12.453125 C 6.226562 -12.453125 7.035156 -12.328125 7.703125 -12.078125 C 8.378906 -11.828125 8.953125 -11.441406 9.421875 -10.921875 L 8.21875 -9.28125 L 8 -9.28125 C 7.65625 -9.644531 7.257812 -9.914062 6.8125 -10.09375 C 6.363281 -10.28125 5.851562 -10.375 5.28125 -10.375 C 4.613281 -10.375 4.101562 -10.253906 3.75 -10.015625 C 3.40625 -9.785156 3.234375 -9.460938 3.234375 -9.046875 C 3.234375 -8.660156 3.351562 -8.351562 3.59375 -8.125 C 3.84375 -7.894531 4.269531 -7.71875 4.875 -7.59375 L 6.484375 -7.25 C 7.671875 -7 8.53125 -6.570312 9.0625 -5.96875 C 9.601562 -5.363281 9.875 -4.578125 9.875 -3.609375 C 9.875 -2.847656 9.707031 -2.179688 9.375 -1.609375 C 9.050781 -1.046875 8.554688 -0.609375 7.890625 -0.296875 C 7.222656 0.015625 6.40625 0.171875 5.4375 0.171875 Z M 5.4375 0.171875 "/></g></g></g><g fill="#ffffff" fill-opacity="1"><g transform="translate(51.744377, 20.685486)"><g><path d="M 1.328125 0 L 1.328125 -9.25 L 3.5625 -9.25 L 3.5625 -8.015625 L 3.75 -7.984375 C 4.050781 -8.484375 4.398438 -8.847656 4.796875 -9.078125 C 5.203125 -9.316406 5.722656 -9.4375 6.359375 -9.4375 C 7.054688 -9.4375 7.617188 -9.296875 8.046875 -9.015625 C 8.472656 -8.742188 8.785156 -8.34375 8.984375 -7.8125 L 9.15625 -7.8125 C 9.4375 -8.363281 9.800781 -8.769531 10.25 -9.03125 C 10.707031 -9.300781 11.269531 -9.4375 11.9375 -9.4375 C 13.863281 -9.4375 14.828125 -8.367188 14.828125 -6.234375 L 14.828125 0 L 12.5 0 L 12.5 -5.9375 C 12.5 -6.476562 12.390625 -6.867188 12.171875 -7.109375 C 11.960938 -7.347656 11.625 -7.46875 11.15625 -7.46875 C 9.875 -7.46875 9.234375 -6.613281 9.234375 -4.90625 L 9.234375 0 L 6.921875 0 L 6.921875 -5.9375 C 6.921875 -6.476562 6.8125 -6.867188 6.59375 -7.109375 C 6.375 -7.347656 6.03125 -7.46875 5.5625 -7.46875 C 4.96875 -7.46875 4.5 -7.265625 4.15625 -6.859375 C 3.820312 -6.460938 3.65625 -5.828125 3.65625 -4.953125 L 3.65625 0 Z M 1.328125 0 "/></g></g></g><g fill="#ffffff" fill-opacity="1"><g transform="translate(67.75108, 20.685486)"><g><path d="M 3.609375 0.171875 C 3.015625 0.171875 2.5 0.0625 2.0625 -0.15625 C 1.625 -0.375 1.285156 -0.691406 1.046875 -1.109375 C 0.816406 -1.535156 0.703125 -2.046875 0.703125 -2.640625 C 0.703125 -3.179688 0.816406 -3.640625 1.046875 -4.015625 C 1.285156 -4.390625 1.648438 -4.691406 2.140625 -4.921875 C 2.640625 -5.160156 3.285156 -5.347656 4.078125 -5.484375 C 4.628906 -5.566406 5.050781 -5.660156 5.34375 -5.765625 C 5.632812 -5.878906 5.828125 -6.003906 5.921875 -6.140625 C 6.023438 -6.273438 6.078125 -6.441406 6.078125 -6.640625 C 6.078125 -6.941406 5.972656 -7.171875 5.765625 -7.328125 C 5.554688 -7.484375 5.210938 -7.5625 4.734375 -7.5625 C 4.222656 -7.5625 3.734375 -7.445312 3.265625 -7.21875 C 2.796875 -6.988281 2.394531 -6.6875 2.0625 -6.3125 L 1.890625 -6.3125 L 0.921875 -7.78125 C 1.390625 -8.300781 1.960938 -8.707031 2.640625 -9 C 3.316406 -9.289062 4.050781 -9.4375 4.84375 -9.4375 C 6.070312 -9.4375 6.957031 -9.175781 7.5 -8.65625 C 8.050781 -8.132812 8.328125 -7.394531 8.328125 -6.4375 L 8.328125 -2.421875 C 8.328125 -2.003906 8.507812 -1.796875 8.875 -1.796875 C 9.019531 -1.796875 9.160156 -1.820312 9.296875 -1.875 L 9.40625 -1.84375 L 9.578125 -0.21875 C 9.441406 -0.132812 9.257812 -0.0664062 9.03125 -0.015625 C 8.800781 0.0351562 8.550781 0.0625 8.28125 0.0625 C 7.726562 0.0625 7.296875 -0.0390625 6.984375 -0.25 C 6.671875 -0.46875 6.445312 -0.800781 6.3125 -1.25 L 6.140625 -1.265625 C 5.691406 -0.304688 4.847656 0.171875 3.609375 0.171875 Z M 4.34375 -1.5625 C 4.882812 -1.5625 5.316406 -1.738281 5.640625 -2.09375 C 5.960938 -2.457031 6.125 -2.960938 6.125 -3.609375 L 6.125 -4.546875 L 5.953125 -4.578125 C 5.816406 -4.472656 5.632812 -4.378906 5.40625 -4.296875 C 5.175781 -4.222656 4.851562 -4.148438 4.4375 -4.078125 C 3.925781 -3.992188 3.5625 -3.847656 3.34375 -3.640625 C 3.125 -3.441406 3.015625 -3.15625 3.015625 -2.78125 C 3.015625 -2.382812 3.128906 -2.082031 3.359375 -1.875 C 3.597656 -1.664062 3.925781 -1.5625 4.34375 -1.5625 Z M 4.34375 -1.5625 "/></g></g></g><g fill="#ffffff" fill-opacity="1"><g transform="translate(77.507792, 20.685486)"><g><path d="M 1.328125 0 L 1.328125 -9.25 L 3.59375 -9.25 L 3.59375 -7.875 L 3.765625 -7.84375 C 3.992188 -8.363281 4.285156 -8.742188 4.640625 -8.984375 C 5.003906 -9.222656 5.445312 -9.34375 5.96875 -9.34375 C 6.5 -9.34375 6.898438 -9.253906 7.171875 -9.078125 L 6.78125 -7.0625 L 6.609375 -7.03125 C 6.453125 -7.09375 6.300781 -7.132812 6.15625 -7.15625 C 6.019531 -7.1875 5.851562 -7.203125 5.65625 -7.203125 C 5.007812 -7.203125 4.515625 -6.972656 4.171875 -6.515625 C 3.828125 -6.066406 3.65625 -5.335938 3.65625 -4.328125 L 3.65625 0 Z M 1.328125 0 "/></g></g></g><g fill="#ffffff" fill-opacity="1"><g transform="translate(84.764506, 20.685486)"><g><path d="M 6.390625 -2.203125 L 6.984375 -0.484375 C 6.734375 -0.273438 6.414062 -0.113281 6.03125 0 C 5.65625 0.113281 5.226562 0.171875 4.75 0.171875 C 3.75 0.171875 2.988281 -0.0976562 2.46875 -0.640625 C 1.945312 -1.179688 1.6875 -1.972656 1.6875 -3.015625 L 1.6875 -7.421875 L 0.28125 -7.421875 L 0.28125 -9.265625 L 1.6875 -9.265625 L 1.6875 -11.0625 L 4.015625 -11.453125 L 4.015625 -9.265625 L 6.640625 -9.265625 L 6.640625 -7.421875 L 4.015625 -7.421875 L 4.015625 -3.1875 C 4.015625 -2.726562 4.109375 -2.394531 4.296875 -2.1875 C 4.484375 -1.976562 4.757812 -1.875 5.125 -1.875 C 5.539062 -1.875 5.898438 -1.984375 6.203125 -2.203125 Z M 6.390625 -2.203125 "/></g></g></g><g fill="#ffffff" fill-opacity="1"><g transform="translate(91.954105, 20.685486)"><g><path d="M 7.296875 0 L 4.359375 0 L 0.21875 -12.265625 L 2.796875 -12.265625 L 5.78125 -3.125 L 5.984375 -3.125 L 8.921875 -12.265625 L 11.4375 -12.265625 Z M 7.296875 0 "/></g></g></g><g fill="#ffffff" fill-opacity="1"><g transform="translate(103.598394, 20.685486)"><g><path d="M 5.375 0.171875 C 4.46875 0.171875 3.671875 -0.0078125 2.984375 -0.375 C 2.304688 -0.75 1.773438 -1.296875 1.390625 -2.015625 C 1.015625 -2.734375 0.828125 -3.601562 0.828125 -4.625 C 0.828125 -5.644531 1.015625 -6.515625 1.390625 -7.234375 C 1.773438 -7.953125 2.304688 -8.5 2.984375 -8.875 C 3.671875 -9.25 4.46875 -9.4375 5.375 -9.4375 C 6.28125 -9.4375 7.078125 -9.25 7.765625 -8.875 C 8.453125 -8.5 8.984375 -7.953125 9.359375 -7.234375 C 9.742188 -6.515625 9.9375 -5.644531 9.9375 -4.625 C 9.9375 -3.601562 9.742188 -2.734375 9.359375 -2.015625 C 8.984375 -1.296875 8.453125 -0.75 7.765625 -0.375 C 7.078125 -0.0078125 6.28125 0.171875 5.375 0.171875 Z M 5.375 -1.796875 C 6.8125 -1.796875 7.53125 -2.738281 7.53125 -4.625 C 7.53125 -5.601562 7.34375 -6.316406 6.96875 -6.765625 C 6.601562 -7.222656 6.070312 -7.453125 5.375 -7.453125 C 3.9375 -7.453125 3.21875 -6.507812 3.21875 -4.625 C 3.21875 -2.738281 3.9375 -1.796875 5.375 -1.796875 Z M 5.375 -1.796875 "/></g></g></g><g fill="#ffffff" fill-opacity="1"><g transform="translate(114.353422, 20.685486)"><g><path d="M 2.5 -10.359375 C 2.070312 -10.359375 1.726562 -10.484375 1.46875 -10.734375 C 1.207031 -10.992188 1.078125 -11.328125 1.078125 -11.734375 C 1.078125 -12.128906 1.207031 -12.453125 1.46875 -12.703125 C 1.726562 -12.960938 2.070312 -13.09375 2.5 -13.09375 C 2.769531 -13.09375 3.015625 -13.03125 3.234375 -12.90625 C 3.453125 -12.789062 3.617188 -12.628906 3.734375 -12.421875 C 3.859375 -12.222656 3.921875 -11.992188 3.921875 -11.734375 C 3.921875 -11.472656 3.859375 -11.238281 3.734375 -11.03125 C 3.617188 -10.820312 3.453125 -10.65625 3.234375 -10.53125 C 3.015625 -10.414062 2.769531 -10.359375 2.5 -10.359375 Z M 1.328125 0 L 1.328125 -9.25 L 3.65625 -9.25 L 3.65625 0 Z M 1.328125 0 "/></g></g></g><g fill="#ffffff" fill-opacity="1"><g transform="translate(119.336641, 20.685486)"><g><path d="M 5.390625 0.171875 C 4.492188 0.171875 3.703125 -0.0078125 3.015625 -0.375 C 2.328125 -0.75 1.789062 -1.296875 1.40625 -2.015625 C 1.019531 -2.742188 0.828125 -3.613281 0.828125 -4.625 C 0.828125 -5.644531 1.019531 -6.515625 1.40625 -7.234375 C 1.789062 -7.953125 2.320312 -8.5 3 -8.875 C 3.6875 -9.25 4.472656 -9.4375 5.359375 -9.4375 C 7.304688 -9.4375 8.554688 -8.726562 9.109375 -7.3125 L 7.515625 -6.171875 L 7.328125 -6.171875 C 7.140625 -6.609375 6.894531 -6.929688 6.59375 -7.140625 C 6.289062 -7.347656 5.878906 -7.453125 5.359375 -7.453125 C 4.679688 -7.453125 4.15625 -7.21875 3.78125 -6.75 C 3.40625 -6.289062 3.21875 -5.582031 3.21875 -4.625 C 3.21875 -3.675781 3.40625 -2.96875 3.78125 -2.5 C 4.164062 -2.03125 4.703125 -1.796875 5.390625 -1.796875 C 5.898438 -1.796875 6.328125 -1.929688 6.671875 -2.203125 C 7.023438 -2.472656 7.273438 -2.863281 7.421875 -3.375 L 7.609375 -3.390625 L 9.25 -2.484375 C 9.019531 -1.703125 8.585938 -1.0625 7.953125 -0.5625 C 7.316406 -0.0703125 6.460938 0.171875 5.390625 0.171875 Z M 5.390625 0.171875 "/></g></g></g><g fill="#ffffff" fill-opacity="1"><g transform="translate(128.875233, 20.685486)"><g><path d="M 9.140625 -4.109375 L 3.203125 -4.109375 C 3.265625 -3.296875 3.488281 -2.707031 3.875 -2.34375 C 4.269531 -1.976562 4.804688 -1.796875 5.484375 -1.796875 C 6.015625 -1.796875 6.445312 -1.894531 6.78125 -2.09375 C 7.113281 -2.289062 7.378906 -2.59375 7.578125 -3 L 7.75 -3 L 9.296875 -2 C 8.992188 -1.351562 8.535156 -0.828125 7.921875 -0.421875 C 7.316406 -0.0234375 6.503906 0.171875 5.484375 0.171875 C 4.523438 0.171875 3.695312 -0.0078125 3 -0.375 C 2.3125 -0.738281 1.773438 -1.28125 1.390625 -2 C 1.015625 -2.71875 0.828125 -3.59375 0.828125 -4.625 C 0.828125 -5.675781 1.023438 -6.5625 1.421875 -7.28125 C 1.816406 -8 2.351562 -8.535156 3.03125 -8.890625 C 3.707031 -9.253906 4.472656 -9.4375 5.328125 -9.4375 C 6.628906 -9.4375 7.628906 -9.085938 8.328125 -8.390625 C 9.023438 -7.703125 9.375 -6.6875 9.375 -5.34375 C 9.375 -4.851562 9.359375 -4.472656 9.328125 -4.203125 Z M 7.15625 -5.609375 C 7.125 -6.304688 6.957031 -6.816406 6.65625 -7.140625 C 6.351562 -7.460938 5.910156 -7.625 5.328125 -7.625 C 4.148438 -7.625 3.457031 -6.953125 3.25 -5.609375 Z M 7.15625 -5.609375 "/></g></g></g></svg>