<svg xmlns="http://www.w3.org/2000/svg" xmlns:xlink="http://www.w3.org/1999/xlink" width="48" zoomAndPan="magnify" viewBox="0 0 36 36.000001" height="48" preserveAspectRatio="xMidYMid meet" version="1.0"><defs><clipPath id="beacb73ab7"><path d="M 0.488281 0 L 35.511719 0 L 35.511719 35.027344 L 0.488281 35.027344 Z M 0.488281 0 " clip-rule="nonzero"/></clipPath></defs><g clip-path="url(#beacb73ab7)"><path fill="#ffffff" d="M 26.652344 14.707031 L 22.929688 14.707031 L 22.929688 9.636719 C 22.929688 8.71875 22.183594 7.96875 21.265625 7.96875 L 9.4375 7.96875 C 8.519531 7.96875 7.773438 8.71875 7.773438 9.636719 L 7.773438 19.121094 C 7.773438 20.039062 8.519531 20.785156 9.4375 20.785156 L 11.152344 20.785156 L 11.152344 23.546875 C 11.152344 23.886719 11.359375 24.1875 11.671875 24.3125 C 11.769531 24.351562 11.871094 24.367188 11.972656 24.367188 C 12.195312 24.367188 12.417969 24.277344 12.574219 24.105469 L 15.640625 20.785156 L 15.65625 20.785156 L 15.65625 23.648438 C 15.65625 24.519531 16.363281 25.226562 17.234375 25.226562 L 21.070312 25.226562 L 23.785156 28.160156 C 23.941406 28.332031 24.164062 28.425781 24.386719 28.425781 C 24.488281 28.425781 24.589844 28.40625 24.6875 28.367188 C 25 28.246094 25.207031 27.941406 25.207031 27.605469 L 25.207031 25.226562 L 26.652344 25.226562 C 27.519531 25.226562 28.226562 24.519531 28.226562 23.648438 L 28.226562 16.28125 C 28.226562 15.414062 27.519531 14.707031 26.652344 14.707031 Z M 15.65625 16.28125 L 15.65625 19.144531 L 15.28125 19.144531 C 15.054688 19.144531 14.835938 19.242188 14.679688 19.410156 L 12.792969 21.449219 L 12.792969 19.964844 C 12.792969 19.511719 12.425781 19.144531 11.972656 19.144531 L 9.4375 19.144531 C 9.425781 19.144531 9.414062 19.132812 9.414062 19.121094 L 9.414062 9.636719 C 9.414062 9.625 9.425781 9.613281 9.4375 9.613281 L 21.265625 9.613281 C 21.277344 9.613281 21.289062 9.625 21.289062 9.636719 L 21.289062 14.707031 L 17.234375 14.707031 C 16.363281 14.707031 15.65625 15.414062 15.65625 16.28125 Z M 26.585938 23.582031 L 24.386719 23.582031 C 23.933594 23.582031 23.566406 23.949219 23.566406 24.402344 L 23.566406 25.507812 L 22.035156 23.847656 C 21.878906 23.679688 21.660156 23.582031 21.429688 23.582031 L 17.300781 23.582031 L 17.300781 16.347656 L 26.585938 16.347656 Z M 18 0 C 8.34375 0 0.488281 7.855469 0.488281 17.511719 C 0.488281 27.171875 8.34375 35.027344 18 35.027344 C 27.65625 35.027344 35.511719 27.171875 35.511719 17.511719 C 35.511719 7.855469 27.65625 0 18 0 Z M 18 33.386719 C 9.25 33.386719 2.128906 26.265625 2.128906 17.511719 C 2.128906 8.761719 9.25 1.640625 18 1.640625 C 26.75 1.640625 33.871094 8.761719 33.871094 17.511719 C 33.871094 26.265625 26.75 33.386719 18 33.386719 Z M 18 33.386719 " fill-opacity="1" fill-rule="nonzero"/></g></svg>